<svg xmlns="http://www.w3.org/2000/svg" width="107" height="83" viewBox="0 0 107 83">
    <g fill="#FFF" fill-rule="evenodd">
        <path stroke="#000" stroke-width="2" d="M83.833 1v5.367H23.165V1h-6.997v5.367H4.5L1 9.295V79.073L4.5 82h98l3.5-2.927V9.295l-3.5-2.928H90.832V1h-7zm6.998 13.755V12H99v11H8V12h8.167v2.755h6.998V12h60.667v2.755h6.999zM8 77h91V30H8v47z"/>
        <path d="M28.352 50.14c-2.184 0-3.444-1.666-3.444-4.802 0-3.136 1.26-4.802 3.444-4.802s3.444 1.666 3.444 4.802c0 3.136-1.26 4.802-3.444 4.802zm1.988-7.224h-.28l-2.968 5.88c.336.266.742.406 1.26.406 1.806 0 2.352-1.806 2.352-3.864 0-.896-.098-1.75-.364-2.422zm-3.976 4.844h.28l2.968-5.88c-.336-.266-.742-.406-1.26-.406-1.806 0-2.352 1.806-2.352 3.864 0 .896.098 1.75.364 2.422zM34.106 50h5.824v-.91h-2.24v-8.414h-1.092l-2.59 2.016.588.784 1.708-1.288h.252v6.902h-2.45V50zm10.206 0h2.296v-2.212h-2.296V50zm11.354-7c0 .798-.406 1.414-1.47 2.548l-3.024 3.22V50h5.894v-.994H52.6v-.28l2.436-2.548c1.036-1.078 1.806-2.016 1.806-3.164 0-1.512-1.246-2.478-2.87-2.478-1.61 0-2.674.91-3.052 2.31l1.106.308c.364-1.19 1.05-1.624 1.988-1.624.952 0 1.652.588 1.652 1.47zm6.846 7.14c-2.184 0-3.444-1.666-3.444-4.802 0-3.136 1.26-4.802 3.444-4.802s3.444 1.666 3.444 4.802c0 3.136-1.26 4.802-3.444 4.802zm1.988-7.224h-.28l-2.968 5.88c.336.266.742.406 1.26.406 1.806 0 2.352-1.806 2.352-3.864 0-.896-.098-1.75-.364-2.422zm-3.976 4.844h.28l2.968-5.88c-.336-.266-.742-.406-1.26-.406-1.806 0-2.352 1.806-2.352 3.864 0 .896.098 1.75.364 2.422zm10.528 2.38c-2.184 0-3.444-1.666-3.444-4.802 0-3.136 1.26-4.802 3.444-4.802s3.444 1.666 3.444 4.802c0 3.136-1.26 4.802-3.444 4.802zm1.988-7.224h-.28l-2.968 5.88c.336.266.742.406 1.26.406 1.806 0 2.352-1.806 2.352-3.864 0-.896-.098-1.75-.364-2.422zm-3.976 4.844h.28l2.968-5.88c-.336-.266-.742-.406-1.26-.406-1.806 0-2.352 1.806-2.352 3.864 0 .896.098 1.75.364 2.422zM76.806 50h5.824v-.91h-2.24v-8.414h-1.092l-2.59 2.016.588.784 1.708-1.288h.252v6.902h-2.45V50zm-51.24 15h5.824v-.91h-2.24v-8.414h-1.092l-2.59 2.016.588.784 1.708-1.288h.252v6.902h-2.45V65zm13.02-7c0 .798-.406 1.414-1.47 2.548l-3.024 3.22V65h5.894v-.994H35.52v-.28l2.436-2.548c1.036-1.078 1.806-2.016 1.806-3.164 0-1.512-1.246-2.478-2.87-2.478-1.61 0-2.674.91-3.052 2.31l1.106.308c.364-1.19 1.05-1.624 1.988-1.624.952 0 1.652.588 1.652 1.47zm5.726 7h2.296v-2.212h-2.296V65zm11.354-7c0 .798-.406 1.414-1.47 2.548l-3.024 3.22V65h5.894v-.994H52.6v-.28l2.436-2.548c1.036-1.078 1.806-2.016 1.806-3.164 0-1.512-1.246-2.478-2.87-2.478-1.61 0-2.674.91-3.052 2.31l1.106.308c.364-1.19 1.05-1.624 1.988-1.624.952 0 1.652.588 1.652 1.47zm6.846 7.14c-2.184 0-3.444-1.666-3.444-4.802 0-3.136 1.26-4.802 3.444-4.802s3.444 1.666 3.444 4.802c0 3.136-1.26 4.802-3.444 4.802zm1.988-7.224h-.28l-2.968 5.88c.336.266.742.406 1.26.406 1.806 0 2.352-1.806 2.352-3.864 0-.896-.098-1.75-.364-2.422zm-3.976 4.844h.28l2.968-5.88c-.336-.266-.742-.406-1.26-.406-1.806 0-2.352 1.806-2.352 3.864 0 .896.098 1.75.364 2.422zM68.266 65h5.824v-.91h-2.24v-8.414h-1.092l-2.59 2.016.588.784 1.708-1.288h.252v6.902h-2.45V65zm11.466-5.096c-.952 0-2.002.686-2.002 2.128 0 1.442 1.05 2.128 2.002 2.128.952 0 1.96-.686 1.96-2.128 0-1.442-1.008-2.128-1.96-2.128zm2.94-2.772l-1.022.546c-.266-.616-.812-1.148-1.848-1.148-1.302 0-2.212 1.316-2.324 3.57h.266c.406-.658 1.204-1.176 2.254-1.176 1.736 0 2.898 1.204 2.898 3.122 0 1.89-1.386 3.094-3.066 3.094-2.184 0-3.5-1.526-3.5-4.802 0-2.954 1.512-4.788 3.472-4.788 1.484 0 2.268.546 2.87 1.582z"/>
    </g>
</svg>
