<svg xmlns="http://www.w3.org/2000/svg" width="96" height="76" viewBox="0 0 96 76">
    <g fill="none" fill-rule="evenodd">
        <path fill="#FFF" d="M22.444 45.604c-2.184 0-3.444-1.666-3.444-4.802C19 37.666 20.26 36 22.444 36s3.444 1.666 3.444 4.802c0 3.136-1.26 4.802-3.444 4.802zm1.988-7.224h-.28l-2.968 5.88c.336.266.742.406 1.26.406 1.806 0 2.352-1.806 2.352-3.864 0-.896-.098-1.75-.364-2.422zm-3.976 4.844h.28l2.968-5.88c-.336-.266-.742-.406-1.26-.406-1.806 0-2.352 1.806-2.352 3.864 0 .896.098 1.75.364 2.422zm7.742 2.24h5.824v-.91h-2.24V36.14H30.69l-2.59 2.016.588.784 1.708-1.288h.252v6.902h-2.45v.91zm10.206 0H40.7v-2.212h-2.296v2.212zm11.354-7c0 .798-.406 1.414-1.47 2.548l-3.024 3.22v1.232h5.894v-.994h-4.466v-.28l2.436-2.548c1.036-1.078 1.806-2.016 1.806-3.164 0-1.512-1.246-2.478-2.87-2.478-1.61 0-2.674.91-3.052 2.31l1.106.308c.364-1.19 1.05-1.624 1.988-1.624.952 0 1.652.588 1.652 1.47zm6.846 7.14c-2.184 0-3.444-1.666-3.444-4.802 0-3.136 1.26-4.802 3.444-4.802s3.444 1.666 3.444 4.802c0 3.136-1.26 4.802-3.444 4.802zm1.988-7.224h-.28l-2.968 5.88c.336.266.742.406 1.26.406 1.806 0 2.352-1.806 2.352-3.864 0-.896-.098-1.75-.364-2.422zm-3.976 4.844h.28l2.968-5.88c-.336-.266-.742-.406-1.26-.406-1.806 0-2.352 1.806-2.352 3.864 0 .896.098 1.75.364 2.422zm10.528 2.38c-2.184 0-3.444-1.666-3.444-4.802 0-3.136 1.26-4.802 3.444-4.802s3.444 1.666 3.444 4.802c0 3.136-1.26 4.802-3.444 4.802zm1.988-7.224h-.28l-2.968 5.88c.336.266.742.406 1.26.406 1.806 0 2.352-1.806 2.352-3.864 0-.896-.098-1.75-.364-2.422zm-3.976 4.844h.28l2.968-5.88c-.336-.266-.742-.406-1.26-.406-1.806 0-2.352 1.806-2.352 3.864 0 .896.098 1.75.364 2.422zm7.742 2.24h5.824v-.91h-2.24V36.14H73.39l-2.59 2.016.588.784 1.708-1.288h.252v6.902h-2.45v.91zm-51.24 15h5.824v-.91h-2.24V51.14H22.15l-2.59 2.016.588.784 1.708-1.288h.252v6.902h-2.45v.91zm13.02-7c0 .798-.406 1.414-1.47 2.548l-3.024 3.22v1.232h5.894v-.994h-4.466v-.28l2.436-2.548c1.036-1.078 1.806-2.016 1.806-3.164 0-1.512-1.246-2.478-2.87-2.478-1.61 0-2.674.91-3.052 2.31l1.106.308c.364-1.19 1.05-1.624 1.988-1.624.952 0 1.652.588 1.652 1.47zm5.726 7H40.7v-2.212h-2.296v2.212zm11.354-7c0 .798-.406 1.414-1.47 2.548l-3.024 3.22v1.232h5.894v-.994h-4.466v-.28l2.436-2.548c1.036-1.078 1.806-2.016 1.806-3.164 0-1.512-1.246-2.478-2.87-2.478-1.61 0-2.674.91-3.052 2.31l1.106.308c.364-1.19 1.05-1.624 1.988-1.624.952 0 1.652.588 1.652 1.47zm6.846 7.14c-2.184 0-3.444-1.666-3.444-4.802 0-3.136 1.26-4.802 3.444-4.802s3.444 1.666 3.444 4.802c0 3.136-1.26 4.802-3.444 4.802zm1.988-7.224h-.28l-2.968 5.88c.336.266.742.406 1.26.406 1.806 0 2.352-1.806 2.352-3.864 0-.896-.098-1.75-.364-2.422zm-3.976 4.844h.28l2.968-5.88c-.336-.266-.742-.406-1.26-.406-1.806 0-2.352 1.806-2.352 3.864 0 .896.098 1.75.364 2.422zm7.742 2.24h5.824v-.91h-2.24V51.14H64.85l-2.59 2.016.588.784 1.708-1.288h.252v6.902h-2.45v.91zm11.466-5.096c-.952 0-2.002.686-2.002 2.128 0 1.442 1.05 2.128 2.002 2.128.952 0 1.96-.686 1.96-2.128 0-1.442-1.008-2.128-1.96-2.128zm2.94-2.772l-1.022.546c-.266-.616-.812-1.148-1.848-1.148-1.302 0-2.212 1.316-2.324 3.57h.266c.406-.658 1.204-1.176 2.254-1.176 1.736 0 2.898 1.204 2.898 3.122 0 1.89-1.386 3.094-3.066 3.094-2.184 0-3.5-1.526-3.5-4.802 0-2.954 1.512-4.788 3.472-4.788 1.484 0 2.268.546 2.87 1.582z"/>
        <g stroke="#FFF" stroke-width="4">
            <path d="M74.577 8H5.067L2 10.55v60.747l3.067 2.547h85.866L94 71.297V10.549L90.933 8H80.71z"/>
            <path stroke-linecap="square" d="M2.438 26h91.124"/>
            <g stroke-linecap="square">
                <path d="M19 2v13M78 2v13"/>
            </g>
        </g>
    </g>
</svg>
