<svg xmlns="http://www.w3.org/2000/svg" xmlns:xlink="http://www.w3.org/1999/xlink" width="168" height="189" viewBox="0 0 168 189">
    <defs>
        <path id="a" d="M0 189h167.071V.91H0z"/>
    </defs>
    <g fill="none" fill-rule="evenodd">
        <path fill="#343F35" d="M64.973 6.188v3.093H55.69v3.094h-9.28v3.095h-6.19v3.093h-6.186v3.094h-3.095v3.094h-3.093v3.094H24.75v3.094h-3.093v3.094h-3.094v3.093H15.47v3.095h-3.094v6.187H9.283v6.19H6.188v9.28H3.093v9.282H0v37.127h3.093v9.281h3.095v9.282h3.095v6.188h3.093v6.188h3.094v3.094h3.094v3.093h3.094v3.095h3.093v3.094h3.095v3.093h3.093v3.094h3.095v3.095h6.187v3.093h6.189v3.094h9.28v3.094h9.283v3.094H102.1v-3.094h9.28v-3.094h9.283v-3.094h6.188v-3.093h6.187v-3.095h3.094v-3.094h3.095v-3.093h3.094v-3.094h3.093v-3.095h3.094v-3.093h3.094v-3.094h3.094v-6.188h3.094v-6.188h3.094v-9.282h3.093v-9.28h3.095V71.16h-3.095v-9.282h-3.093v-9.28h-3.094v-6.19h-3.094v-6.187h-3.094v-3.095h-3.094v-3.093h-3.094V30.94h-3.093v-3.094h-3.094v-3.094h-3.095v-3.094h-3.094v-3.094h-6.187V15.47h-6.188v-3.095h-9.282V9.281H102.1V6.188z"/>
        <path fill="#329E41" d="M64.973 3.094v3.094H55.69v3.093h-9.28v3.095h-6.19v3.094h-6.186v3.093h-3.095v3.094h-3.093v3.095H24.75v3.093h-3.093v3.094h-3.094v3.094H15.47v3.094h-3.094v6.188H9.283v6.187H6.188v9.282H3.093v9.282H0v37.128h3.093v9.281h3.095v9.282h3.095v6.187h3.093v6.188h3.094v3.094h3.094v3.094h3.094v3.094h3.093v3.094h3.095v3.094h3.093v3.093h3.095v3.095h6.187v3.094h6.189v3.093h9.28v3.094h9.283v3.094H102.1v-3.094h9.28v-3.094h9.283v-3.093h6.188v-3.094h6.187v-3.095h3.094v-3.093h3.095v-3.094h3.094v-3.094h3.093v-3.094h3.094v-3.094h3.094v-3.094h3.094v-6.188h3.094v-6.187h3.094v-9.282h3.093v-9.28h3.095V68.065h-3.095v-9.282h-3.093v-9.282h-3.094v-6.187h-3.094v-6.188h-3.094v-3.094h-3.094V30.94h-3.094v-3.094h-3.093v-3.093h-3.094v-3.095h-3.095v-3.094h-3.094V15.47h-6.187v-3.094h-6.188V9.281h-9.282V6.188H102.1V3.094z"/>
        <path fill="#FF0307" d="M92.817 43.315V40.22h3.094v-3.094h6.188v-3.094h6.188v-3.094h9.281v-3.094h24.752v3.094h6.187v3.094h3.094v3.094h3.094v6.188h3.095v9.282H92.817z"/>
        <path fill="#FF9100" d="M111.38 52.597h6.188v-3.094h9.283v-3.094h24.75v3.094h9.283v9.28h3.094V71.16H111.38z"/>
        <path fill="#FFF700" d="M129.945 64.972v3.094h-9.282v21.658h46.409V68.066h-6.188v-3.094z"/>
        <path fill="#41AF46" d="M136.132 83.535v3.094h-9.282v24.752h37.127v-6.187h3.094V86.63h-12.376v-3.094z"/>
        <path fill="#0068FD" d="M133.038 108.287h6.188v-3.094h15.47v3.094h9.281v6.188h-3.093v9.282h-3.094v3.093h-24.752z"/>
        <path fill="#D903CA" d="M136.132 126.85h6.188v-3.093h15.47v6.188h-3.095v6.188h-3.093v3.093h-3.094v3.095h-12.376z"/>
        <path fill="#E8E8E8" d="M61.878 167.071v-12.375h3.095v-9.282h3.093v-15.47h3.094v-6.187h3.094v-6.188h3.094v-6.188h-9.282v3.094h-6.188v3.094h-3.094v3.093h-6.187v3.095h-9.282v3.093H40.22v3.094H27.846v-6.187H24.75v-3.095h-3.094V102.1h3.094v-3.094h3.095v-3.094h3.094v-3.094h3.093v-3.094h3.094v-6.188h3.094v-6.188h3.094V71.16h3.094v-6.188h3.094v-3.094h3.094v-3.094h3.094V55.69h3.093v-3.094h3.094v-3.094h3.095v-3.094h6.187v-3.093h24.75v3.093h6.19v3.094h6.187v3.094h6.188v3.094h3.093v3.094h3.095v3.094h3.094v6.188h3.094v6.188h3.093V86.63h3.094v15.47h3.094v18.563h3.095v9.282h3.093v6.188h3.094v9.282h-3.094v3.094h-3.093v3.094h-3.095v3.094h-3.094v3.093h-6.187v3.095h-6.188v3.093h-9.282v3.094H102.1v3.094H64.973v-3.094z"/>
        <path fill="#333E34" d="M27.846 123.757h3.094v-3.094h18.563v-3.094h6.188v-3.094h3.093v-3.094h3.094v-3.094h21.658v-3.093h3.094v-3.095h3.094v-3.093h3.094v-9.282h6.187v9.282H95.91v3.093h-3.093v3.095h-3.094v3.093H86.63v3.094H68.067v3.094h-6.19v3.094h-3.093v3.094h-6.187v3.094h-9.282v3.094H40.22v3.093H27.846z"/>
        <path fill="#FFF" d="M71.16 30.939h3.094v6.188h3.093v3.094h3.094v3.094h15.47v3.094h6.188v3.093h6.188v3.095h6.187v3.093h3.094v3.094h3.095v3.094h3.094v6.188h3.093v6.188h3.094v12.375h3.094v15.47h3.094v18.564h3.094v9.28h3.094v6.189h3.094v9.282h-3.094v3.094h-3.094v-3.094h-3.094v-3.094h-3.094v-3.094h-3.094v-9.282h-3.094v-12.375h-3.093v-12.376h-3.094v-9.475l-3.095.193V74.254h-3.094v-9.282h-3.093v-3.094h-3.094v-3.094h-3.094V55.69H102.1v-3.093h-3.094v-3.095h-6.188v-3.093h-9.28v3.093H80.44v3.095h-6.187V40.22h-6.188V27.845h3.094z"/>
        <path fill="#C1C1C1" d="M68.066 30.939h3.094v6.188h3.093v12.375H71.16v-6.187h-3.094zM61.878 52.597v6.187H55.69V55.69h3.093v-3.094z"/>
        <path fill="#C1C1C1" d="M55.69 64.972h6.187v3.094H49.503v6.188H46.41v3.093h-3.095V71.16h3.095v-6.188h3.094v-3.094h3.093v-3.094h3.094zM40.22 83.536h3.094v-6.188H40.22z"/>
        <path fill="#C1C1C1" d="M43.314 89.724v6.186h-9.28v3.096h-3.095v3.093h-6.188v-3.094h3.094v-3.094h3.094v-3.094h3.094v-3.093h3.094v-6.189h3.093v6.189zM21.657 102.099v18.563h3.094v-3.093h3.094v-3.094h3.094v-6.188h-6.188v-6.188zM24.751 123.757h6.188v-3.094h-6.188zM40.22 126.85v-3.093h3.095v-3.095h3.094v-6.187H40.22v3.094h-6.187v6.188H30.94v3.093zM49.503 120.663h3.094v-3.094h-3.094z"/>
        <path fill="#C1C1C1" d="M58.784 114.475h3.094v-3.094h6.188v-3.094h6.188v-3.094H71.16v-3.094h-6.188v-3.094h-3.094v-3.094H55.69v3.094h3.094v3.094h3.094v6.188H55.69v3.094h-3.093v6.188h6.187zM55.69 86.63h3.094v-3.094H55.69zM58.784 83.536h3.094v-3.094h-3.094zM61.878 80.442h3.095v-3.094h-3.095zM52.597 83.536v-3.094h3.094v-3.094h-6.188v6.188z"/>
        <path fill="#333E34" d="M21.657 111.38h6.188v3.095h-3.094v3.094h-3.094zM58.784 74.254v3.094h-6.187V71.16h9.281v3.094z"/>
        <path fill="#6E1A15" d="M55.69 49.502v-6.187h-6.187V40.22H46.41v-3.093h-3.095v-3.094H40.22V30.94h-3.093v-3.094h-3.094v-3.094H30.94v-3.094h-3.094V15.47h-3.094v-3.094h-3.094V9.281H15.47V6.188H9.282V3.093H3.093v3.095h3.094v3.093h6.19v3.094h3.092v3.094h3.094v3.094h3.094v3.094h3.094v3.094h3.094v3.094h3.094v6.188h3.094v3.094h3.094v3.093h3.093v3.095h3.094v3.093h3.095v3.094z"/>
        <g transform="translate(0 -.91)">
            <path fill="#FF0307" d="M58.784 47.319V41.13H55.69v-3.094h-6.187v-6.188s-6.318.258-6.189 0c.13-.258 0-3.093 0-3.093h-3.093v-6.188H30.94V16.38h-3.093v-3.094h-3.095v-3.094h-3.094V7.098h-9.28v3.094h6.186v3.094h3.094v3.094h3.094v6.188h3.095v3.094h3.093v6.187h3.094v3.095h3.094v3.093h3.094v3.094h3.093v3.094h3.095v3.094h12.375z"/>
            <mask id="b" fill="#fff">
                <use xlink:href="#a"/>
            </mask>
            <path fill="#FF0307" d="M6.188 7.098h6.188V4.004H6.188zM0 4.004h6.187V.91H0z" mask="url(#b)"/>
            <path fill="#FF5240" d="M6.187 4.004h3.095V.91H6.187zM12.376 7.098h6.187V4.004h-6.187zM21.657 10.192h3.094V7.098h-3.094zM24.751 13.285h3.095v-3.094h-3.095zM27.845 16.38h3.094v-3.094h-3.094zM27.846 19.473h3.094V16.38h6.187v3.094h3.094v3.094h3.094v3.094h3.094v3.094h6.188v3.093h3.094v3.095h3.093v3.093h3.094v6.188h-9.281V41.13h-9.282v-3.094h3.094v-3.093h-3.094v-3.095h-9.282v-3.093h3.094v-6.188H30.94v3.094h-3.094z" mask="url(#b)"/>
            <path fill="#F0D6C3" d="M52.597 34.943h3.094v3.094h3.093v6.188h-6.187V41.13h-3.094v-3.093h3.094z" mask="url(#b)"/>
            <path fill="#6EC872" d="M58.784 44.225h3.094v6.187h3.094v3.095h-6.188z" mask="url(#b)"/>
            <path fill="#266826" d="M55.69 47.319h3.094v3.094h3.093v3.094h-3.093v-3.094H55.69z" mask="url(#b)"/>
            <path fill="#C1C1C1" d="M61.878 167.981v-12.375h3.095v-9.282h3.093v-15.47h3.094v-6.187h3.094v-6.188h3.094v-6.188h9.282v-3.094h3.094v-3.094h3.093v-3.094h3.094v-3.094h3.094v-9.282H95.91V78.257h-3.094V72.07h3.094v3.094h3.094v3.093h3.095v6.188h3.093v18.564H102.1v6.188h-3.095v6.188H95.91v3.094h-3.094v3.093h-3.093v3.095H86.63v3.093h-3.094v3.094H80.44v6.188h-3.093v6.188h-3.094v9.282H71.16v9.282h-3.094v9.281h-3.093v-3.094zM77.348 171.075h9.282v-15.47h3.094V143.23h3.094v-9.282h-3.094v6.188H86.63v6.188h-3.094v9.281h-3.094v9.282h-3.094z" mask="url(#b)"/>
            <path fill="#FFF" d="M89.724 75.164h3.094v3.094h3.093v21.657h-3.093v3.094h-3.094v3.094H86.63v3.094H74.254v-3.094H71.16v-3.094h9.28v-3.094h3.096V96.82h3.093v-9.282h3.094zM117.568 109.197h3.095v12.375h3.093v9.282h-3.093v-9.282h-3.095zM120.663 137.042h3.094v-3.094h-3.094z" mask="url(#b)"/>
            <path fill="#333E34" d="M62.47 147.671h-3v-7.023h4.58v-9.605h5.727v-7.31h4.353l-.008-5.29 3.225-.003.012 8.208h-4.582v9.93H67.05v7.07h-4.58z" mask="url(#b)"/>
            <path fill="#FFF" d="M74.9 144.303h7.314v-7.314H74.9z" mask="url(#b)"/>
            <path fill="#FFF" d="M80.404 142.34h7.314v-14.563h-7.314z" mask="url(#b)"/>
            <path fill="#FFF" d="M68.066 140.635v8.775h-3.094v9.282H61.88v12.375h3.093v3.094h37.547v-3.094h8.861v-3.094h9.283v-3.093h6.187v-3.095h6.19v-3.093h3.092v-3.094h3.094v-3.094h3.094v-3.094h3.094v-9.282h-3.094v-6.188h-3.094v-9.282h-3.094v-16.25h-24.724v7.314h-7.315v3h-4.628v1.686h-11.75v3.355h-3.362v3.959h-3.952v10.105h-5.05v-6.933h-2.373v-7.162h-7.313v7.314h2.372z" mask="url(#b)"/>
            <path fill="#C1C1C1" d="M59.446 146.7h-3v6h6v-6z" mask="url(#b)"/>
            <path fill="#E6E6E6" d="M59.446 146.688V140.7h-3v3h-3v9h3v-6.01z" mask="url(#b)"/>
            <path fill="#E6E6E6" d="M56.446 155.699h3v-3h-3zM75.406 141.972h5v-5h-5zM71.378 136.981h4v-6.102h-4z" mask="url(#b)"/>
            <path fill="#E6E6E6" d="M80.376 136.981h4v-9.322h-4z" mask="url(#b)"/>
            <path fill="#E6E6E6" d="M80.387 138.926h2.021v-2.021h-2.021zM109.509 123.394h2.021v-2.021h-2.021zM93.442 136.412h2.021v-7.461h-2.021zM113.958 119.415h7.884v-2.021h-7.884zM97.918 127.481h7.884v-2.021h-7.884zM124.763 122.391h2.021v-4.92h-2.021zM73.391 138.926h2.021v-2.021h-2.021z" mask="url(#b)"/>
            <path fill="#333E34" d="M39.276 47.956h3v-7.394h-3zM48.319 35.045h3v-3h-3zM51.319 35.045h3v-3h-3zM37.41 51.32l-1.705-2.468 2.468-1.706 1.705 2.468z" mask="url(#b)"/>
            <path fill="#333E34" d="M51.319 32.407h3v-3.652h-3zM51.319 38.045h3v-3.102h-3z" mask="url(#b)"/>
            <path fill="#333E34" d="M54.204 34.943h3v-3.885h-3z" mask="url(#b)"/>
            <path fill="#C1C1C1" d="M38.243 47.422l-2.387 1.65-5.21-7.544 2.386-1.649z" mask="url(#b)"/>
            <path fill="#333E34" d="M45.118 41.235h3v-6.086h-3z" mask="url(#b)"/>
            <path fill="#333E34" d="M42.319 38.045h9v-3.102h-9z" mask="url(#b)"/>
            <path fill="#C1C1C1" d="M41.585 52.084l-2.47 1.706-1.704-2.469 2.469-1.705z" mask="url(#b)"/>
            <path fill="#333E34" d="M42.267 47.967l-2.47 1.706-5.114-7.405 2.468-1.705z" mask="url(#b)"/>
            <path fill="#333E34" d="M37.171 43.933h3v-3.39h-3z" mask="url(#b)"/>
            <path fill="#333E34" d="M39.559 41.235h5.674v-3.19h-5.674zM42.232 44.235h3v-3h-3zM37.177 48.372l-1.705-2.468L37.94 44.2l1.705 2.468z" mask="url(#b)"/>
            <path fill="#E8E8E8" d="M31.21 49.974l-1.704-2.468 2.469-1.705 1.705 2.468z" mask="url(#b)"/>
            <path fill="#C1C1C1" d="M37.411 51.322l-2.468 1.704-5.116-7.404 2.47-1.706z" mask="url(#b)"/>
            <path fill="#333E34" d="M79.499 173.14v-11.231H80.8v-3.131h1.627v-3.913h1.301v-3.131h1.952v-4.696h4.088V136.41h5.726v-9H105.8v-4h5.726v-4h10.306v-5h14.328v-3.003h3v6.003h-14.328v5h-10.306v4H108.8v4H98.494v9h-3.771v7.628h4.294v4.696h3.253v3.13h1.301v3.914h1.626v7.045h1.302v7.317h-2.928v-11.231h-1.301v-3.131h-1.301v-3.913H85.68v3.913h-1.952v3.13h-1.301v11.232z" mask="url(#b)"/>
            <path fill="#E6E6E6" d="M83.38 187.376h3.998v-3.29H83.38z" mask="url(#b)"/>
            <path fill="#C1C1C1" d="M83.281 171.064h.22v14.173H87.4V188.977h-7.898v-17.913h.852z" mask="url(#b)"/>
            <path fill="#E6E6E6" d="M98.65 187.4h3.998v-3.29H98.65z" mask="url(#b)"/>
            <path fill="#C1C1C1" d="M102.747 171.087h-.22v14.173h-3.899v3.741h7.899v-17.914h-.852z" mask="url(#b)"/>
        </g>
    </g>
</svg>
