<svg xmlns="http://www.w3.org/2000/svg" xmlns:xlink="http://www.w3.org/1999/xlink" width="165" height="171" viewBox="0 0 165 171">
    <defs>
        <path id="a" d="M0 169.65h163.72V0H0z"/>
    </defs>
    <g fill="none" fill-rule="evenodd">
        <path fill="#343F35" d="M64.438 6.886v3.03h-9.095v3.029H46.25v3.03h-6.067v3.029H34.12v3.03h-3.032v3.029h-3.032v3.03h-3.032v3.029h-3.029v3.029h-3.032v3.03h-3.031v3.029h-3.035v6.059H9.865v6.059H6.833v9.088H3.8v9.088H.77v36.354h3.032v9.088h3.032v9.089h3.032v6.058h3.032v6.06h3.035v3.029h3.031v3.03h3.032v3.029h3.029v3.03h3.032v3.029h3.032v3.029h3.032v3.03h6.063v3.029h6.067v3.03h9.093v3.029h9.095v3.03h36.385v-3.03h9.093v-3.03h9.095v-3.03h6.067v-3.029h6.064v-3.029h3.029v-3.03h3.031v-3.029h3.032v-3.03h3.032v-3.029h3.032v-3.03h3.032v-3.029h3.035v-6.059h3.032v-6.058h3.031v-9.089h3.03v-9.088h3.031V70.504h-3.032v-9.088h-3.029v-9.088h-3.031v-6.06h-3.032V40.21h-3.035v-3.03h-3.032v-3.029h-3.032v-3.03h-3.032v-3.029h-3.032v-3.03h-3.031v-3.029h-3.03v-3.03h-6.063v-3.029h-6.067v-3.03h-9.095V9.916h-9.093V6.886z"/>
        <path fill="#329E41" d="M64.438 3.857v3.03h-9.095v3.029H46.25v3.03h-6.067v3.029H34.12v3.03h-3.032v3.029h-3.032v3.029h-3.032v3.03h-3.029v3.029h-3.032v3.03h-3.031v3.029h-3.035v6.059H9.865v6.059H6.833v9.088H3.8v9.088H.77v36.354h3.032v9.088h3.032v9.088h3.032v6.06h3.032v6.058h3.035v3.03h3.031v3.029h3.032v3.03h3.029v3.029h3.032v3.03h3.032v3.029h3.032v3.03h6.063v3.029h6.067v3.03h9.093v3.029h9.095v3.03h36.385v-3.03h9.093v-3.03h9.095v-3.03h6.067v-3.029h6.064v-3.03h3.029v-3.029h3.031v-3.03h3.032v-3.029h3.032v-3.029h3.032v-3.03h3.032v-3.029h3.035v-6.059h3.032v-6.059h3.031v-9.088h3.03v-9.088h3.031V67.475h-3.032v-9.088h-3.029v-9.088h-3.031v-6.06h-3.032v-6.058h-3.035v-3.03h-3.032v-3.03h-3.032v-3.029h-3.032v-3.029h-3.032v-3.03h-3.031v-3.029h-3.03v-3.03h-6.063v-3.029h-6.067v-3.03h-9.095V6.887h-9.093v-3.03z"/>
        <path fill="#FF0307" d="M91.726 43.24v-3.03h3.031v-3.03h6.064v-3.029h6.064v-3.03h9.095v-3.029h24.255v3.03h6.064v3.029h3.032v3.03h3.032v6.058h3.031v9.089H91.726z"/>
        <path fill="#FF9100" d="M109.917 52.328h6.063v-3.03h9.096v-3.03h24.255v3.03h9.095v9.089h3.032v12.117h-51.541z"/>
        <path fill="#FFF700" d="M128.109 64.445v3.03h-9.099V88.68h45.48V67.475h-6.063v-3.03z"/>
        <path fill="#41AF46" d="M134.172 82.623v3.03h-9.096v24.235h36.382v-6.059h3.032V85.652h-12.127v-3.03z"/>
        <path fill="#0068FD" d="M131.14 106.858h6.063v-3.03h15.16v3.03h9.095v6.059h-3.032v9.088h-3.032v3.03H131.14z"/>
        <path fill="#D903CA" d="M134.172 125.035h6.063v-3.03h15.16v6.059h-3.032v6.059h-3.032v3.03h-3.032v3.029h-12.127z"/>
        <path fill="#E8E8E8" d="M61.407 164.417V152.3h3.032v-9.089h3.032v-15.147h3.032v-6.059h3.032v-6.059h3.031v-6.059h-9.095v3.03h-6.064v3.03h-3.032v3.029h-6.063v3.03h-9.096v3.029h-3.032v3.029H28.057v-6.059h-3.032v-3.03h-3.032V100.8h3.032v-3.03h3.032V94.74h3.032v-3.03h3.031v-3.029h3.032v-6.059h3.032v-6.059h3.032v-6.059h3.032v-6.058h3.032v-3.03h3.032v-3.03h3.031v-3.029h3.032v-3.03h3.032v-3.029h3.032v-3.03h6.064V43.24H94.758v3.03h6.063v3.03h6.064v3.029h6.064v3.03h3.031v3.029h3.032v3.03h3.032v6.058h3.032v6.059h3.032v12.118h3.032v15.147h3.032v18.177h3.031v9.088h3.032v6.059h3.032v9.088h-3.032v3.03h-3.032v3.03h-3.031v3.029h-3.032v3.029h-6.064v3.03h-6.064v3.029h-9.095v3.03h-9.096v3.029H64.44v-3.03z"/>
        <path fill="#333E34" d="M28.057 122.005h3.032v-3.03H49.28v-3.029h6.063v-3.03h3.032v-3.029h3.032v-3.03H82.63v-3.029h3.032v-3.03h3.032V97.77h3.032v-9.088h6.063v9.088h-3.032v3.03h-3.031v3.03h-3.032v3.029h-3.032v3.03H67.47v3.029h-6.064v3.03h-3.032v3.029h-6.063v3.03h-9.096v3.029h-3.032v3.029H28.057z"/>
        <path fill="#FFF" d="M70.503 31.122h3.032v6.058h3.031v3.03h3.032v3.03h15.16v3.029h6.063v3.03h6.064v3.029h6.064v3.03h3.031v3.029h3.032v3.03h3.032v6.058h3.032v6.059h3.032v12.118h3.032v15.147h3.032v18.177h3.031v9.088h3.032v6.059h3.032v9.088h-3.032v3.03h-3.032v-3.03h-3.031v-3.03h-3.032v-3.029h-3.032v-9.088h-3.032v-12.118h-3.032v-12.118h-3.032V94.55l-3.032.191V73.534h-3.031v-9.088h-3.032v-3.03h-3.032v-3.03h-3.032v-3.029h-3.032v-3.03H97.79v-3.029h-6.063v-3.03H82.63v3.03h-3.032v3.03h-6.063V40.21H67.47V28.092h3.032z"/>
        <path fill="#C1C1C1" d="M67.47 31.122h3.033v6.058h3.032v12.118h-3.032V43.24H67.47zM61.407 52.328v6.059h-6.064v-3.03h3.032v-3.03z"/>
        <path fill="#C1C1C1" d="M55.343 64.446h6.064v3.029H49.28v6.059h-3.032v3.03h-3.032v-6.06h3.032v-6.058h3.032v-3.03h3.032v-3.03h3.031z"/>
        <path fill="#C1C1C1" d="M40.184 82.622h3.035v-6.059h-3.035zM43.216 88.681v6.059H34.12v3.03H31.09v3.029h-6.064v-3.03h3.032V94.74h3.032v-3.03h3.031v-3.029h3.032v-6.059h3.032v6.06z"/>
        <path fill="#C1C1C1" d="M21.993 100.799v18.177h3.032v-3.03h3.032v-3.03h3.032v-6.058h-6.064v-6.06z"/>
        <path fill="#C1C1C1" d="M25.025 122.005h6.064v-3.03h-6.064zM40.184 125.035v-3.03h3.032v-3.03h3.032v-6.058h-6.064v3.03H34.12v6.058H31.09v3.03zM49.28 118.976h3.032v-3.03H49.28zM58.375 112.917h3.032v-3.03h6.064v-3.03h6.064v-3.029h-3.032v-3.03h-6.064V97.77h-3.032V94.74h-6.064v3.03h3.032v3.029h3.032v6.059h-6.064v3.03h-3.031v6.058h6.063zM55.343 85.652h3.032v-3.03h-3.032zM58.375 82.622h3.032v-3.03h-3.032zM61.407 79.593h3.032v-3.03h-3.032zM52.312 82.622v-3.03h3.031v-3.029H49.28v6.06z"/>
        <path fill="#333E34" d="M21.993 109.887h6.064v3.03h-3.032v3.03h-3.032zM58.375 73.534v3.03h-6.063v-6.06h9.095v3.03z"/>
        <path fill="#6E1A15" d="M55.343 49.298V43.24H49.28v-3.03h-3.032V37.18h-3.032v-3.029h-3.032v-3.03h-3.032v-3.029H34.12v-3.03H31.09v-3.029h-3.032v-6.059h-3.032v-3.03h-3.032V9.916H15.93V6.886H9.866v-3.03H3.802v3.03h3.032v3.03h6.064v3.029h3.031v3.03h3.032v3.029h3.032v3.03h3.032v3.029h3.032v3.03h3.032v6.058h3.031v3.03h3.032v3.029h3.032v3.03h3.032v3.029h3.032v3.03z"/>
        <g transform="translate(.77 .827)">
            <path fill="#FF0307" d="M57.605 45.442v-6.06h-3.032v-3.029H48.51v-6.059s-6.191.252-6.064 0c.127-.251 0-3.029 0-3.029h-3.032v-6.059H30.32v-6.059h-3.032v-3.03h-3.032V9.089h-3.032v-3.03h-9.096v3.03h6.064v3.03h3.032v3.03h3.032v6.058h3.032v3.03h3.032v6.058h3.031v3.03h3.032v3.03h3.032v3.029h3.032v3.03h3.032v3.029h12.127z"/>
            <mask id="b" fill="#fff">
                <use xlink:href="#a"/>
            </mask>
            <path fill="#FF0307" d="M6.064 6.059h6.063v-3.03H6.064zM0 3.03h6.064V0H0z" mask="url(#b)"/>
            <path fill="#FF5240" d="M6.064 3.03h3.032V0H6.064zM12.127 6.059h6.064v-3.03h-6.064zM21.223 9.088h3.032v-3.03h-3.032zM24.255 12.118h3.032v-3.03h-3.032zM27.287 15.147h3.032v-3.03h-3.032zM27.287 18.177h3.032v-3.03h6.063v3.03h3.032v3.03h3.032v3.029h3.032v3.029h6.063v3.03h3.032v3.029h3.032v3.03h3.032v6.058h-9.096v-3.03h-9.095v-3.029h3.032v-3.03h-3.032v-3.029H33.35v-3.029h3.032v-6.059H30.32v3.03h-3.032z" mask="url(#b)"/>
            <path fill="#F0D6C3" d="M51.541 33.324h3.032v3.03h3.032v6.058h-6.064v-3.03H48.51v-3.029h3.031z" mask="url(#b)"/>
            <path fill="#6EC872" d="M57.605 42.412h3.032v6.06h3.032V51.5h-6.064z" mask="url(#b)"/>
            <path fill="#266826" d="M54.573 45.442h3.032v3.03h3.032V51.5h-3.032v-3.03h-3.032z" mask="url(#b)"/>
            <path fill="#C1C1C1" d="M60.637 163.59v-12.118h3.032v-9.088H66.7v-15.147h3.032v-6.059h3.031v-6.059h3.032v-6.059h9.096v-3.03h3.032v-3.029h3.032v-3.03h3.031v-3.029h3.032v-9.088h-3.032V75.736h-3.031v-6.059h3.031v3.03h3.032v3.03h3.032v6.058h3.032v18.177h-3.032v6.059H97.02v6.059h-3.032v3.03h-3.031v3.029h-3.032v3.029h-3.032v3.03H81.86v3.029h-3.032v6.059h-3.032v6.059h-3.032v9.088h-3.031v9.088H66.7v9.089h-3.032v-3.03zM75.796 166.62h9.096v-15.148h3.032v-12.117h3.032v-9.089h-3.032v6.06h-3.032v6.058H81.86v9.088h-3.032v9.089h-3.032z" mask="url(#b)"/>
            <path fill="#FFF" d="M87.924 72.707h3.032v3.03h3.031v21.205h-3.031v3.03h-3.032v3.03h-3.032v3.029H72.764V103h-3.031v-3.03h9.095v-3.029h3.032v-3.03h3.032v-9.087h3.032zM115.21 106.03h3.032v12.119h3.032v9.088h-3.032v-9.088h-3.032zM118.242 133.296h3.032v-3.03h-3.032z" mask="url(#b)"/>
        </g>
    </g>
</svg>
