<svg xmlns="http://www.w3.org/2000/svg" xmlns:xlink="http://www.w3.org/1999/xlink" width="115" height="47" viewBox="0 0 115 47">
    <defs>
        <path id="a" d="M0 0v30h16.146V0z"/>
        <path id="c" d="M0 0v30h16.146V0z"/>
    </defs>
    <g fill="none" fill-rule="evenodd">
        <g transform="translate(76)">
            <mask id="b" fill="#fff">
                <use xlink:href="#a"/>
            </mask>
            <path fill="#FFF" d="M16.118 14.08h-.013V1.58L14.315 0H1.79L0 1.58V15l1.79 1.58h10.742c-.15 1.973-.71 4.847-2.58 6.906-2.982 3.285-8.116 3.356-8.162 3.357V30c.28 0 6.88-.052 10.954-4.54 3.986-4.388 3.362-10.46 3.375-11.38" mask="url(#b)"/>
        </g>
        <g transform="translate(98)">
            <mask id="d" fill="#fff">
                <use xlink:href="#c"/>
            </mask>
            <path fill="#FFF" d="M16.118 14.08h-.013V1.58L14.315 0H1.79L0 1.58V15l1.79 1.58h10.742c-.15 1.973-.71 4.847-2.58 6.906-2.982 3.285-8.116 3.356-8.162 3.357V30c.28 0 6.88-.052 10.954-4.54 3.986-4.388 3.362-10.46 3.375-11.38" mask="url(#d)"/>
        </g>
        <g fill="#E6E6E6" stroke="#000" stroke-width="4">
            <path d="M2.182 30.98h70.636v-7.615H2.182zM2.182 17.654h70.636v-7.616H2.182zM2.182 44.308H46.09v-7.616H2.18z"/>
        </g>
    </g>
</svg>
