<svg xmlns="http://www.w3.org/2000/svg" xmlns:xlink="http://www.w3.org/1999/xlink" width="111" height="43" viewBox="0 0 111 43">
    <defs>
        <path id="a" d="M0 0v30h16.146V0z"/>
        <path id="c" d="M0 0v30h16.146V0z"/>
    </defs>
    <g fill="none" fill-rule="evenodd">
        <g transform="translate(72)">
            <mask id="b" fill="#fff">
                <use xlink:href="#a"/>
            </mask>
            <path fill="#FFF" d="M16.118 14.08h-.013V1.58L14.315 0H1.79L0 1.58V15l1.79 1.58h10.742c-.15 1.973-.71 4.847-2.58 6.906-2.982 3.285-8.116 3.356-8.162 3.357V30c.28 0 6.88-.052 10.954-4.54 3.986-4.388 3.362-10.46 3.375-11.38" mask="url(#b)"/>
        </g>
        <g transform="translate(94)">
            <mask id="d" fill="#fff">
                <use xlink:href="#c"/>
            </mask>
            <path fill="#FFF" d="M16.118 14.08h-.013V1.58L14.315 0H1.79L0 1.58V15l1.79 1.58h10.742c-.15 1.973-.71 4.847-2.58 6.906-2.982 3.285-8.116 3.356-8.162 3.357V30c.28 0 6.88-.052 10.954-4.54 3.986-4.388 3.362-10.46 3.375-11.38" mask="url(#d)"/>
        </g>
        <g fill="#FFF">
            <path d="M0 38h40v5H0zM0 25h66v5H0zM0 12h66v5H0z"/>
        </g>
    </g>
</svg>
